<svg id="Livello_1" data-name="Livello 1" xmlns="http://www.w3.org/2000/svg" viewBox="0 0 152.79 32"><defs><style>.cls-1,.cls-2{fill:#010101;}.cls-1{fill-rule:evenodd;}</style></defs><path class="cls-1" d="M282.45,330.05h5.4l2.1-8.95a5.87,5.87,0,0,1,1.12-2.55c1.1-1,4.05-.87,4.05-.87l1.19-5.06a28.81,28.81,0,0,0-6.57.48,6.72,6.72,0,0,0-2.76,1.77,10.76,10.76,0,0,0-1.82,3.72ZM235.8,317.2h19.72a3.1,3.1,0,0,1,2.49,1.09c.52.73,1.07,1.84.22,3.91a4.35,4.35,0,0,1-4.23,2.93h-3.53l1.46-6.23H246.5l-4.86,20.82H247l2.27-9.67h3.6a11.42,11.42,0,0,0,5.15-1.15,10,10,0,0,0,4-4.17,15,15,0,0,0,1.33-4.88,6.43,6.43,0,0,0-1.07-4.7,6.21,6.21,0,0,0-3.21-2.12,18.53,18.53,0,0,0-3.44-.37H235.11c-3.16,0-4.84,1.15-5.78,2.13a5.69,5.69,0,0,0-1.53,3.8,5.13,5.13,0,0,0,1,3.26,5.07,5.07,0,0,0,3.74,1.62h3.6a2.72,2.72,0,0,1,.77.14.78.78,0,0,1,.42.79c-.06.39-.18.89-1.5.95H225.59l-1.74,4.72h12.3c1.63,0,4.66-.34,6-2.77a9.56,9.56,0,0,0,1-3.86,4.82,4.82,0,0,0-.67-2.57,3.81,3.81,0,0,0-2.22-1.68,10.52,10.52,0,0,0-2.1-.27h-3.39c-.65,0-1.15-.2-1.09-.87a1,1,0,0,1,.7-.8A9.13,9.13,0,0,1,235.8,317.2Zm39-.93a5.14,5.14,0,0,0-3.64,1.65,6.76,6.76,0,0,0-1.76,4.17,4.69,4.69,0,0,0,.76,2.92A3.69,3.69,0,0,0,273,326.3a4.82,4.82,0,0,0,3.75-1.59A7.19,7.19,0,0,0,278.5,320a3.71,3.71,0,0,0-1-2.63,3.78,3.78,0,0,0-2.7-1.06l.7-4.1a8.94,8.94,0,0,1,6.27,2.14,7.06,7.06,0,0,1,1.87,5.29,11.88,11.88,0,0,1-3.27,7.77c-2.22,2.45-6.09,3.4-8.77,3.27a8.53,8.53,0,0,1-6.11-2.52,6.64,6.64,0,0,1-1.73-4.9A10.64,10.64,0,0,1,266,317a12.49,12.49,0,0,1,9.55-4.79ZM299,307.72h5.44l-1.18,5h4.13l-1.14,4.93h-4.12l-1.23,5.48c-.19,1.12,0,1.69.62,2.06a3.93,3.93,0,0,0,1.11.23h11.75c1.31,0,2.25-.15,2.29-1s-1.07-.89-1.07-.89h-3.34a5.92,5.92,0,0,1-3.91-1.34,4.62,4.62,0,0,1-1.11-3.53,6.34,6.34,0,0,1,1.63-4.13,7.13,7.13,0,0,1,4.84-1.77h12.19l-1.7,4.49h-10c-.65,0-.95.12-1.13.36a1,1,0,0,0-.16.94c.12.28.42.4,1.25.44h3.12a6.35,6.35,0,0,1,3.71,1,4,4,0,0,1,1.42,3.51,6.64,6.64,0,0,1-1.9,4.67c-.95,1-2.27,1.71-6.22,1.92h-14.5c-1.57,0-2.86,0-4.06-1.37s-.8-3.16-.68-4.14Z" transform="translate(-223.85 -307.72)"/><path class="cls-2" d="M338.37,334.22l4-22.6h-7.2l.58-3.17h17.71l-.58,3.17h-7.2l-4,22.6Zm16.39-25.77h3.6l3.34,20.91h.15l11-20.91h3.74l-13.93,25.77h-3.45Z" transform="translate(-223.85 -307.72)"/></svg>